# xmcd CD database file
#
# Track frame offsets:
#	150
#	23162
#	50287
#	71410
#	107100
#	136325
#	178430
#	207815
#	236330
#	266692
#	301185
#
# Disc length: 4167 seconds
#
# Revision: 0
# Processed by: cddbd v1.5.1PL0 Copyright (c) Steve Scherf et al.
# Submitted via: CDex 1.51
#
DISCID=9510450b
DTITLE=Rene Pretscher Trio - Story of a Jazz Piano Vol. 2
DYEAR=2004
DGENRE=Jazz
TTITLE0=Have you Met Miss Jones
TTITLE1=Summertime
TTITLE2=Confirmation
TTITLE3=The Nearness of You
TTITLE4=All Blues
TTITLE5=Dolphin Dance
TTITLE6=Cantaloupe Island
TTITLE7=Over the Rainbow
TTITLE8=Night Train
TTITLE9=Cartuja de Valldemossa
TTITLE10=Blues for Waller
EXTD=YEAR: 2004
EXTT0=
EXTT1=
EXTT2=
EXTT3=
EXTT4=
EXTT5=
EXTT6=
EXTT7=
EXTT8=
EXTT9=
EXTT10=
PLAYORDER=
